<?xml version="1.0" encoding="UTF-8"?>
<svg width="159px" height="22px" viewBox="0 0 159 22" version="1.1" xmlns="http://www.w3.org/2000/svg" xmlns:xlink="http://www.w3.org/1999/xlink">
    <title>dark</title>
    <defs>
        <linearGradient x1="50%" y1="0%" x2="50%" y2="100%" id="linearGradient-1">
            <stop stop-color="#0673E6" offset="0%"></stop>
            <stop stop-color="#0EABF4" offset="100%"></stop>
        </linearGradient>
    </defs>
    <g id="dark" stroke="none" stroke-width="1" fill="none" fill-rule="evenodd">
        <text id="ShipShack" font-family="Gotham-Black, Gotham" font-size="19" font-weight="normal" letter-spacing="0.22799981" fill="#FFFFFF">
            <tspan x="34" y="18">ShipShack</tspan>
        </text>
        <g id="warehouse-solid" transform="translate(1.000000, 1.000000)" fill="url(#linearGradient-1)" fill-rule="nonzero">
            <path d="M0,19.0579461 L0,6.62676022 C0,5.59835141 0.62109375,4.67592365 1.5703125,4.29517688 L12.0351562,0.091261469 C12.3320313,-0.0304204897 12.6640625,-0.0304204897 12.9648438,0.091261469 L23.4296875,4.29517688 C24.3789062,4.67592365 25,5.60227663 25,6.62676022 L25,19.0579461 C25,19.580001 24.5820312,20 24.0625,20 L22.1875,20 C21.6679688,20 21.25,19.580001 21.25,19.0579461 L21.25,8.69535352 C21.25,8.00058878 20.6914063,7.43928168 20,7.43928168 L5,7.43928168 C4.30859375,7.43928168 3.75,8.00058878 3.75,8.69535352 L3.75,19.0579461 C3.75,19.580001 3.33203125,20 2.8125,20 L0.9375,20 C0.41796875,20 0,19.580001 0,19.0579461 Z M19.0625,20 L5.9375,20 C5.41796875,20 5,19.580001 5,19.0579461 L5,16.8598204 L20,16.8598204 L20,19.0579461 C20,19.580001 19.5820312,20 19.0625,20 Z M5,15.6037486 L5,13.0916049 L20,13.0916049 L20,15.6037486 L5,15.6037486 Z M5,11.8355331 L5,8.69535352 L20,8.69535352 L20,11.8355331 L5,11.8355331 Z" id="Shape"></path>
        </g>
        <rect id="Rectangle" fill-opacity="0.36" fill="#FFFFFF" x="6" y="9" width="16" height="12"></rect>
    </g>
</svg>